<mxfile host="app.diagrams.net" agent="Mozilla/5.0 (Macintosh; Intel Mac OS X 10_15_7) AppleWebKit/537.36 (KHTML, like Gecko) Chrome/131.0.0.0 Safari/537.36" version="25.0.3">
  <diagram name="Page-1" id="ZwyjFwMiNqedkkxNlDGF">
    <mxGraphModel dx="1026" dy="632" grid="0" gridSize="10" guides="1" tooltips="1" connect="1" arrows="1" fold="1" page="1" pageScale="1" pageWidth="827" pageHeight="1169" math="0" shadow="0">
      <root>
        <mxCell id="0" />
        <mxCell id="1" parent="0" />
        <mxCell id="VFInvaEKKQ5OimrptS2e-4" value="" style="rounded=0;whiteSpace=wrap;html=1;fillColor=#f5f5f5;fontColor=#333333;strokeColor=#666666;fontSize=20;fontStyle=1" vertex="1" parent="1">
          <mxGeometry x="90" y="200" width="360" height="190" as="geometry" />
        </mxCell>
        <mxCell id="VFInvaEKKQ5OimrptS2e-7" style="edgeStyle=orthogonalEdgeStyle;rounded=0;orthogonalLoop=1;jettySize=auto;html=1;entryX=0;entryY=0.5;entryDx=0;entryDy=0;fontSize=20;fontStyle=1" edge="1" parent="1" source="VFInvaEKKQ5OimrptS2e-1" target="VFInvaEKKQ5OimrptS2e-2">
          <mxGeometry relative="1" as="geometry" />
        </mxCell>
        <mxCell id="VFInvaEKKQ5OimrptS2e-1" value="Deck.gl" style="rounded=0;whiteSpace=wrap;html=1;fontStyle=1;fontSize=20;" vertex="1" parent="1">
          <mxGeometry x="110" y="245" width="130" height="60" as="geometry" />
        </mxCell>
        <mxCell id="VFInvaEKKQ5OimrptS2e-2" value="Maplibre" style="rounded=0;whiteSpace=wrap;html=1;fontSize=20;fontStyle=1" vertex="1" parent="1">
          <mxGeometry x="284" y="245" width="130" height="60" as="geometry" />
        </mxCell>
        <mxCell id="VFInvaEKKQ5OimrptS2e-3" value="Carto server (map tiles)" style="rounded=0;whiteSpace=wrap;html=1;fillColor=#dae8fc;strokeColor=#6c8ebf;fontSize=20;fontStyle=1" vertex="1" parent="1">
          <mxGeometry x="550" y="224.5" width="142" height="101" as="geometry" />
        </mxCell>
        <mxCell id="VFInvaEKKQ5OimrptS2e-5" value="React app" style="text;html=1;align=center;verticalAlign=middle;resizable=0;points=[];autosize=1;strokeColor=none;fillColor=none;fontSize=20;fontStyle=1" vertex="1" parent="1">
          <mxGeometry x="215.5" y="347" width="109" height="36" as="geometry" />
        </mxCell>
        <mxCell id="VFInvaEKKQ5OimrptS2e-6" style="edgeStyle=orthogonalEdgeStyle;rounded=0;orthogonalLoop=1;jettySize=auto;html=1;exitX=1;exitY=0.5;exitDx=0;exitDy=0;fontSize=20;fontStyle=1" edge="1" parent="1" source="VFInvaEKKQ5OimrptS2e-2" target="VFInvaEKKQ5OimrptS2e-3">
          <mxGeometry relative="1" as="geometry" />
        </mxCell>
        <mxCell id="VFInvaEKKQ5OimrptS2e-9" style="edgeStyle=orthogonalEdgeStyle;rounded=0;orthogonalLoop=1;jettySize=auto;html=1;entryX=0.5;entryY=1;entryDx=0;entryDy=0;fontSize=20;fontStyle=1" edge="1" parent="1" source="VFInvaEKKQ5OimrptS2e-8" target="VFInvaEKKQ5OimrptS2e-4">
          <mxGeometry relative="1" as="geometry" />
        </mxCell>
        <mxCell id="VFInvaEKKQ5OimrptS2e-8" value="User" style="shape=umlActor;verticalLabelPosition=bottom;verticalAlign=top;html=1;outlineConnect=0;fontSize=20;fontStyle=1" vertex="1" parent="1">
          <mxGeometry x="255" y="460" width="30" height="60" as="geometry" />
        </mxCell>
      </root>
    </mxGraphModel>
  </diagram>
</mxfile>
